<svg fill="none" height="100%" width="100%" viewBox="0 0 1080 1080" xmlns:xlink="http://www.w3.org/1999/xlink" xmlns="http://www.w3.org/2000/svg"><g transform="matrix(1,0,0,1,592,434)" id="i0"><g id="i1"><path d="M0,-127C-6,-181,-106,-199,-94,-103C-82,-7,-80,166,-80,166C-80,166,-104,164,-164,134C-224,104,-284,150,-228,212C-172,274,-138,318,-94,358C-50,398,-44,438,54,434C152,430,314,464.734,314,290C314,148,282,48,176,50C70,52,30,54,30,54C30,54,6,-73,0,-127Z" stroke-linejoin="bevel" stroke-linecap="round" stroke-width="34" stroke="#606060"><animate repeatCount="indefinite" attributeName="d" dur="1.96s" begin="0s" calcMode="spline" values="M0,-127C-6,-181,-106,-199,-94,-103C-82,-7,-80,166,-80,166C-80,166,-104,164,-164,134C-224,104,-284,150,-228,212C-172,274,-138,318,-94,358C-50,398,-44,438,54,434C152,430,314,464.734,314,290C314,148,282,48,176,50C70,52,30,54,30,54C30,54,6,-73,0,-127Z; M-76,111C-92.927,59.372,-182,39,-170,135C-158,231,-104,360,-104,360C-104,360,-110,356,-170,326C-230,296,-268,370,-212,432C-156,494,-186,466,-142,506C-98,546,-92,586,6,582C104,578,266,612.734,266,438C266,296,234,196,128,198C22,200,-18,202,-18,202C-18,202,-56,172,-76,111Z; M90,-305.48C128,-358,47.098,-420.354,-6,-339.48C-70,-242,-102,-26.48,-102,-26.48C-102,-26.48,-100,-64.48,-160,-94.48C-220,-124.48,-270,-98.48,-214,-36.48C-158,25.52,-140,137.52,-96,177.52C-52,217.52,-46,257.52,52,253.52C150,249.52,312,284.254,312,109.52C312,-32.48,280,-132.48,174,-130.48C68,-128.48,28,-126.48,28,-126.48C28,-126.48,58.151,-261.461,90,-305.48Z; M0,-127C-6,-181,-106,-199,-94,-103C-82,-7,-80,166,-80,166C-80,166,-104,164,-164,134C-224,104,-284,150,-228,212C-172,274,-138,318,-94,358C-50,398,-44,438,54,434C152,430,314,464.734,314,290C314,148,282,48,176,50C70,52,30,54,30,54C30,54,6,-73,0,-127Z; M0,-127C-6,-181,-106,-199,-94,-103C-82,-7,-80,166,-80,166C-80,166,-104,164,-164,134C-224,104,-284,150,-228,212C-172,274,-138,318,-94,358C-50,398,-44,438,54,434C152,430,314,464.734,314,290C314,148,282,48,176,50C70,52,30,54,30,54C30,54,6,-73,0,-127Z" keyTimes="0; 0.265306; 0.510204; 0.816327; 1" keySplines="0.73 0 0.27 1; 0.73 0 0.27 1; 0.33 0 0 1; 0 0 1 1" fill="freeze" /></path></g></g><g transform="matrix(1,0,0,1,540,540)" visibility="hidden" id="i2"><animate repeatCount="indefinite" begin="0s" calcMode="discrete" dur="1.96s" values="hidden; visible; hidden; hidden" keyTimes="0; 0.184; 0.796; 1" attributeName="visibility" /><g id="i1"><path d="M-340,245C-340,245,-340,232,-340,232C-340,232,-340,235,-340,235" stroke-linejoin="round" stroke-linecap="round" stroke-width="34" stroke="#606060"><animate repeatCount="indefinite" attributeName="d" dur="1.96s" begin="0s" calcMode="spline" values="M-340,245C-340,245,-340,232,-340,232C-340,232,-340,235,-340,235; M-340,245C-340,245,-340,232,-340,232C-340,232,-340,235,-340,235; M-338,254C-338,254,-338,-158,-338,-158C-338,-158,-422,-88,-422,-88; M-339,-319C-339,-319,-338,-318,-338,-318C-338,-318,-339.5,-317,-339.5,-317; M-339,-319C-339,-319,-338,-318,-338,-318C-338,-318,-339.5,-317,-339.5,-317" keyTimes="0; 0.183673; 0.510204; 0.816327; 1" keySplines="0 0 1 1; 0.72 0 0.833 0.833; 0.167 0.167 0 1; 0 0 1 1" fill="freeze" /></path></g><g id="i3"><path d="M-341,231C-341,231,-340,231,-340,231" stroke-linecap="round" stroke-width="34" stroke="#606060"><animate repeatCount="indefinite" attributeName="d" dur="1.96s" begin="0s" calcMode="spline" values="M-341,231C-341,231,-340,231,-340,231; M-341,231C-341,231,-340,231,-340,231; M-339,-159C-339,-159,-261,-84,-261,-84; M-340,-318C-340,-318,-339,-312,-339,-312; M-340,-318C-340,-318,-339,-312,-339,-312" keyTimes="0; 0.183673; 0.510204; 0.816327; 1" keySplines="0 0 1 1; 0.72 0 0.833 0.833; 0.167 0.167 0 1; 0 0 1 1" fill="freeze" /></path></g></g></svg>